<?xml version="1.0" encoding="UTF-8"?>
<svg id="Camada_2" data-name="Camada 2" xmlns="http://www.w3.org/2000/svg" viewBox="0 0 234.23 286.06">
  <defs>
    <style>
      .cls-1 {
        fill: #efe3d6;
      }
    </style>
  </defs>
  <g id="Camada_1-2" data-name="Camada 1">
    <g>
      <path class="cls-1" d="M161.84,257.92c-13.82,9.84-27.55,18.56-41.78,27.24-1.9,1.16-3.92,1.23-5.82.08-16.31-9.89-32.17-20.03-47.51-31.45C20.04,218.98,1.1,176.35.07,118.35c-.47-26.09,1.58-51.6,5.44-77.29-.08-3.53,1.42-6.18,4.13-8.27,6.02-4.65,12.25-8.56,19.15-12.13C51.85,8.73,76.87,2.01,102.91.44c35.83-2.17,69.92,3.6,101.78,19.99,7.03,3.62,13.32,7.61,19.56,12.23,2.53,1.87,3.84,4.23,4.2,7.33l4.21,36.77c1.59,13.84,1.75,27.31,1.42,41.24-.97,41.66-10.63,78.97-38.8,110.54-9.97,11.17-21.03,20.55-33.44,29.39ZM119.43,259.78c17.31-8.21,33.2-18.59,47.2-31.45,23.61-21.68,39.46-49.93,46.6-81.15,7.98-34.92,7.09-68.64,3.17-103.96-.26-2.34-.78-3.95-2.79-5.38C159.68-.39,76.58-.76,22.28,36.62c-1.56,1.07-3.55,2.58-4.23,4.28-4.09,35.56-5.23,71.33,2.83,106.5,6.45,28.13,20.1,54.15,40.33,74.82,15.53,15.87,33.86,28.32,53.87,37.74,1.16.55,2.94.49,4.35-.18Z"/>
      <path class="cls-1" d="M42.19,157.74c-1.26,1.16-2.33,1.84-3.8,1-1.18-.67-1.55-2.22-.86-3.63,7.64-15.63,18.65-27.97,34.57-35.35,7.71-3.58,15.54-6.14,23.92-7.54l19.68-3.31c7.48-1.26,14.61-2.52,21.9-4.62,14.59-4.2,27.44-12.07,37.57-23.48,9.18-10.34,16.12-22.24,21.44-34.97.51-1.23,1.89-1.78,2.93-1.57.91.18,2.36,1.42,2.23,2.67-2.12,21.82-8.68,44.2-22.02,61.98-8.46,11.28-19.27,20.16-32.23,25.63-29.78,12.57-60.76,2.07-90.05,14.07-5.55,2.27-10.79,4.98-15.29,9.11Z"/>
      <circle class="cls-1" cx="117.11" cy="62.33" r="25.42"/>
      <path class="cls-1" d="M174.09,138.82s-29.46,32.62-78.45,25.4c0,0-33.45-4.75-36.01,10.64-2.7,16.25,60.95-3.68,36.4,76.52-24.55,80.2,151.9-190.61,78.06-112.55Z"/>
    </g>
  </g>
</svg>