<?xml version="1.0" encoding="UTF-8"?>
<svg id="Camada_2" data-name="Camada 2" xmlns="http://www.w3.org/2000/svg" viewBox="0 0 603.02 199.35">
  <defs>
    <style>
      .cls-1 {
        fill: #6B3019;
      }
    </style>
  </defs>
  <g id="Camada_1-2" data-name="Camada 1">
    <g>
      <path class="cls-1" d="M112.79,179.74c-9.63,6.85-19.2,12.93-29.12,18.98-1.32.81-2.73.86-4.05.05-11.37-6.89-22.42-13.96-33.11-21.92C13.96,152.6.77,122.89.05,82.48c-.33-18.18,1.1-35.96,3.79-53.86-.05-2.46.99-4.31,2.87-5.77,4.19-3.24,8.53-5.97,13.34-8.45C36.13,6.08,53.57,1.4,71.72.3c24.97-1.51,48.72,2.51,70.93,13.93,4.9,2.52,9.28,5.3,13.63,8.52,1.76,1.3,2.68,2.95,2.93,5.11l2.94,25.62c1.1,9.64,1.22,19.03.99,28.74-.68,29.03-7.41,55.03-27.04,77.03-6.95,7.78-14.66,14.32-23.31,20.48ZM83.23,181.03c12.06-5.72,23.13-12.95,32.9-21.92,16.45-15.11,27.5-34.8,32.47-56.55,5.56-24.33,4.94-47.83,2.21-72.45-.18-1.63-.54-2.75-1.94-3.75C111.27-.27,53.37-.53,15.53,25.52c-1.09.75-2.47,1.8-2.95,2.98-2.85,24.78-3.65,49.71,1.97,74.22,4.5,19.61,14.01,37.74,28.1,52.14,10.82,11.06,23.6,19.74,37.54,26.3.81.38,2.05.34,3.03-.12Z"/>
      <g>
        <g>
          <path class="cls-1" d="M566.97,158.6c-2.71.85-8.77.64-11.81.53-1.44-.05-2.74-.25-4.15-.56-3.73-.81-7.43-1.65-10.78-3.49-1.97-1.08-3.81-2.09-5.69-3.33-5.51-3.62-10.34-9.52-13.43-15.37-.97-1.84-1.57-3.83-2.25-5.83-.99-2.91-1.5-5.56-1.9-8.62l-.46-3.55c-.45-3.43.22-10.46.87-14.09.61-3.41,1.5-6.59,3.03-9.66,2.8-5.61,3.45-6.97,7.84-11.67,2.48-2.65,5.18-4.97,8.31-6.84,3.82-2.28,7.74-4.08,12.11-4.98.78-.16,1.57-.5,2.32-.61l2.78-.41c2.24-.33,8.02-.3,10.44-.18,4.51.22,10.18,1.77,14.3,3.61,4.51,2.01,8.4,4.69,11.83,8.24,2.29,2.37,4.55,4.59,6.17,7.49,3.82,6.84,5.7,12.82,6.3,20.64l.22,2.85v43.19c-.01,1.03-1.64,1.74-2.43,1.74l-12.22.02c-.95,0-2.42-.61-2.5-1.73-.14-1.89-.07-3.86-.1-5.74,0-.21-.28-.66-.46-.62s-.55.19-.7.32c-5.8,4.8-10.1,7.18-17.62,8.65ZM580.07,132.74c2.83-4.05,4.55-8.53,5.01-13.39l.42-4.32c.09-.89.09-1.74-.02-2.64l-.32-2.53c-.64-5.09-2.33-9.67-5.33-13.8-1.52-2.1-3.13-3.78-5.3-5.22-3.13-2.08-7.3-3.89-11.05-4.17l-2.62-.2c-.73-.05-1.35-.02-2.11.01-6.1.23-11.86,2.3-16.35,6.58-4.13,3.93-7.23,10.06-8,15.76-.32,2.34-.7,4.52-.48,6.86.26,2.75.46,5.44,1.26,8.15,1.14,3.87,3.09,7.82,5.81,10.86,1.35,1.51,2.98,2.76,4.66,3.89,6.05,4.05,13.12,4.63,20.13,3.42,5.45-.94,11.11-4.74,14.27-9.27Z"/>
          <path class="cls-1" d="M510.83,83.66l-2.65,7.95-1.33,4.12-1.09,3.2-2.44,6.9-3.48,10.41-2.76,8.46-1.15,3.31-1.92,5.43c-1.49,4.21-2.87,8.36-4.83,12.36-2.68,5.46-7.17,10.42-13.09,12.25l-1.72.53c-1.76.54-5.2.69-7.04.5-.74-.08-1.67.05-2.39-.1-4.27-.87-6.99-2.22-10.07-5.1-2.46-2.29-4.5-4.81-6.01-7.85-.84-1.69-1.61-3.37-2.28-5.2l-5.1-14.02-1.41-4.41-3.53-10.88-.64-1.79-5.52-15.99-2.54-7.79-4.17-12.31c-.3-.88.48-1.9,1.39-1.9l13.99-.03c1.45,0,2.31.9,2.74,2.18l3.02,8.95,2.27,6.52,2.68,8.19,4.86,14.6,1.03,3.11,2.16,6.48,3.22,10.11c.58,1.81,1.29,3.5,2.03,5.23,1.3,3.05,4.69,6.35,7.93,4.52,1.71-.97,3-2.55,3.82-4.39.72-1.64,1.42-3.24,2-4.96l2.5-7.43,2.9-8.9,1.53-4.62,1.49-4.66,2.54-7.6,6.13-18.37,2.34-7.04c.3-.89,1.24-1.89,2.23-1.89l13.87-.03c.94,0,1.79.55,1.78,1.6,0,.71-.29,1.53-.54,2.24l-1.38,3.85-1.36,4.25Z"/>
        </g>
        <path class="cls-1" d="M279.75,145.74c-1.02,1.37-2.31,2.42-3.5,3.52-2.18,2-7.5,5.41-10.27,6.56-1.1.45-2.15.9-3.28,1.23l-1.32.38c-3.27.95-6.6,1.6-10.06,1.72-2.15.07-7.48.11-9.33-.22l-4.15-.73c-.83-.15-1.72-.42-2.53-.65l-1.75-.5c-2.03-.58-3.89-1.47-5.75-2.46-7.72-4.12-12.04-7.99-16.93-15.29-1.26-1.88-2.16-3.79-2.92-5.9l-1.18-3.31c-1.72-4.84-2.53-10.75-2.38-15.89l.14-4.79.43-3.07c.46-3.27.96-4.89,1.97-7.97,1.4-4.29,3.37-8.15,6.08-11.73,1.42-1.87,2.81-3.6,4.54-5.21,1.99-1.85,3.98-3.46,6.27-4.99,2.34-1.56,4.86-2.62,7.48-3.75,3.04-1.31,6.25-1.91,9.53-2.48,1.96-.34,3.82-.43,5.81-.43h2.24c6.57-.02,13.65,1.88,19.43,4.8,3.2,1.62,5.96,3.64,8.69,5.91.83.69,1.5,1.47,2.25,2.27,3.98,4.31,7.09,9.26,8.88,14.89,1.08,3.4,2.18,6.65,2.38,10.2l.22,3.94.16,3.57c.05,1.02.12,6.16-1.6,6.16l-65.84.02c-.28,0-.68.16-.78.3-.13.17-.14.61-.08.88.8,3.67,2.35,6.89,4.42,9.99,2.35,3.53,5.55,6.08,9.36,7.9,6.02,2.88,13.34,3.12,19.7,1.22,3.24-.97,6.28-2.86,8.72-5.17l1.84-1.74c.56-.53,1.09-1.56,2.1-1.35.84.17,1.77.45,2.57.76l5.04,1.93,4.42,1.57c.75.27,1.5.61,2.23.96s1.02,1.3.52,1.96l-3.74,4.98ZM223.94,106.38h48.15c.52,0,.54-.86.47-1.17-.9-3.84-2.73-7.18-5.03-10.31-1.15-1.57-2.4-2.83-3.98-3.98-5.98-4.35-13.54-5.85-20.78-4.54-4.78.87-9.11,2.75-12.65,6.15-2.66,2.56-5.73,7.3-6.75,10.94l-.51,1.8c-.06.21.01.69.12.84s.45.26.95.26Z"/>
        <path class="cls-1" d="M413.65,141.21l-3.34,4.43c-1.01,1.34-2.28,2.44-3.55,3.56-2.48,2.19-5.21,3.9-8.11,5.55-3.51,2-7.35,2.92-11.29,3.75-1.63.34-3.14.56-4.81.62-2.04.07-8.48.17-10.16-.16l-4.54-.88c-3.44-.66-6.58-1.86-9.62-3.5-5.15-2.78-9.62-5.82-13.34-10.48-2.74-3.43-4.95-6.38-6.45-10.54-.95-2.63-2.26-6.21-2.68-8.88l-.64-4.07c-.35-2.23-.26-8.32-.16-10.77.04-.98.29-1.98.4-2.93.17-1.37.35-2.66.7-3.98l.77-2.86c2.39-8.89,8.61-17.54,16.22-22.76,1.48-1.01,2.9-1.99,4.54-2.73l4.26-1.92c.55-.25,1.18-.49,1.78-.68,4.19-1.36,8.94-2.17,13.4-2.17h2.04c3.03,0,6.43.3,9.34,1.04,3.1.78,6,1.72,8.94,3.06,7.67,3.51,13.94,9.38,18.12,16.67,1.9,3.32,3.14,6.7,4.08,10.35l.62,2.41c.3,1.16.56,2.4.66,3.61l.18,2.26.17,2.46c.15,2.26.09,4.45.04,6.74-.02.91-.3,3.18-1.72,3.18h-65.67c-.28,0-.61.09-.69.22-.1.17-.19.71-.12.95l.61,2.19c.92,3.32,2.65,6.18,4.66,8.97,1.69,2.34,3.89,4.16,6.42,5.59,3.99,2.25,6.69,3.13,11.3,3.53,3.86.33,7.6-.2,11.3-1.44,2.98-.99,5.6-2.72,7.86-4.86.73-.7,1.58-1.34,2.16-2.1.74-.97,1.56-1.27,2.7-.85l2.31.85,6.31,2.35c1.43.53,5.45,1.59,5.5,2.89.02.4-.23.95-.53,1.36ZM402.38,106.41c.57,0,.77-.59.7-.9-.93-4.11-2.81-7.62-5.38-10.96-1.97-2.56-4.6-4.58-7.55-5.93-3.43-1.57-5.72-2.27-9.5-2.54-3.77-.27-6.75-.04-10.35,1-4.51,1.3-8.57,3.8-11.49,7.47-2.58,3.23-4.53,6.6-5.42,10.65-.06.25-.13.62-.07.79s.51.41.75.41h48.3Z"/>
        <path class="cls-1" d="M322.52,156.25c0,1.71-1.02,2.95-2.64,2.95l-12.33-.02c-1.18,0-2.62-1.16-2.62-2.45V43.51c0-1.33.87-2.46,2.24-2.46l12.88.02c2.74,0,2.55,4.17,2.35,5.94-.15,1.32.11,2.54.11,3.89l.02,105.34Z"/>
      </g>
      <path class="cls-1" d="M29.4,109.92c-.88.81-1.62,1.28-2.65.7-.82-.47-1.08-1.55-.6-2.53,5.32-10.9,13-19.49,24.09-24.63,5.37-2.49,10.83-4.28,16.67-5.26l13.72-2.31c5.21-.88,10.18-1.75,15.26-3.22,10.16-2.93,19.13-8.41,26.19-16.36,6.4-7.21,11.23-15.5,14.94-24.37.36-.86,1.32-1.24,2.05-1.1.63.13,1.64.99,1.56,1.86-1.48,15.21-6.05,30.8-15.35,43.19-5.9,7.86-13.43,14.05-22.46,17.86-20.75,8.76-42.34,1.44-62.75,9.81-3.87,1.59-7.52,3.47-10.66,6.35Z"/>
      <circle class="cls-1" cx="81.61" cy="43.44" r="17.71"/>
      <path class="cls-1" d="M121.32,96.74s-20.53,22.73-54.67,17.7c0,0-23.31-3.31-25.09,7.41-1.88,11.32,42.47-2.56,25.36,53.32-17.11,55.89,105.85-132.83,54.4-78.43Z"/>
    </g>
  </g>
</svg>